#!OML:ASF F:\VICON\USERDATA\INSTALL\rory3\rory3.ASF
:FULLY-SPECIFIED
:DEGREES
55
root 0.8506150518872473 17.807253728846735 32.084586140321086 -3.541844233095838 -2.0866153392485645 -6.518677401665432
lfemur -16.852467819752093 0.3720593375778849 -11.834665762251024
ltibia 54.199018337447654
lfoot -8.222726856499026 2.1476829917758686
ltoes -9.060466818032161
rfemur -6.557368541117384 5.843238539425805 31.378981169211336
rtibia 28.747065933977296
rfoot -13.542516833204942 -8.464003595008727
rtoes -0.6450839885018858
lowerback 1.0 0.36455063140366517 4.038172876807496
upperback 0.30438346235621316 1.4601383477140544 2.557059088770589
thorax -5.518619312078822 0.67377335716611 0.15611202679478187
lowerneck -16.330703709697627 -2.948286908637884 -1.1140609471714447
upperneck 22.945108833006046 -3.7168505999049617 -0.4803595142943569
head 10.0384849812853 -1.8997135870856559 -0.4515560016607111
lclavicle -1.9440666686435192e-15 -2.3680945207703837e-16
lhumerus -34.02266373337058 4.66641089422479 82.86153035117714
lradius 22.152360173232534
lwrist 8.28174186307535
lhand -27.888239904928177 23.4080549296544
lfingers nan
lthumb -1.0996365178242113 53.330921084776875
rclavicle -1.894290065072233e-15 -1.9495405632680564e-16
rhumerus -28.655051226293203 -25.725525610206876 -71.07127895009462
rradius 28.69629210782056
rwrist 4.273857182915431
rhand -18.36798012330971 1.0
rfingers nan
rthumb 8.179840080097637 -7.989698485433933
56
root 0.8702817036247145 17.80159152679629 32.55943911932229 -3.6246478723793634 -1.855348511723331 -7.130961503227027
lfemur -18.966975026619913 -0.09407104335329164 -12.016645892453239
ltibia 52.293264143892735
lfoot -8.308951678669342 2.309420848569736
ltoes -9.821712287453598
rfemur -5.708341485123784 5.714603456748428 31.77309965662431
rtibia 30.209225794584274
rfoot -11.54549893135506 -8.050969716414839
rtoes -0.32566366045505557
lowerback 1.0 0.516403513676333 4.652858675582518
upperback 0.20913369469506252 1.8102448421559836 2.446463770013757
thorax -5.524427810428378 0.8270107998240641 -0.41550683825122836
lowerneck -16.170142281670067 -3.0358964432784945 -1.1239576215816878
upperneck 22.94965784899922 -3.8967012772438787 -0.39476156870914575
head 10.024967971922736 -1.9603319686562832 -0.44987711541273046
lclavicle -1.9367424875443568e-15 -2.33700777959623e-16
lhumerus -34.25864338162293 5.093362438136011 82.79904035985838
lradius 22.878272603115885
lwrist 8.209921591050975
lhand -27.75528129199416 23.57443724667777
lfingers nan
lthumb -1.0169282891981082 53.42920065490273
rclavicle -1.8867472624818308e-15 -1.9085401131561708e-16
rhumerus -27.79262735494204 -24.487707326121736 -71.11955753757397
rradius 29.143509227148048
rwrist 3.9170007353402867
rhand -18.41908894477118 1.0
rfingers nan
rthumb 8.11788524121956 -7.844205522169861
57
root 0.8937504442422315 17.80180233562337 33.637349493203324 -3.588748679083323 -1.780768861455284 -7.381887271020389
lfemur -19.90436948666052 -0.5103274892187479 -12.33892071532076
ltibia 49.19664119109066
lfoot -9.036959687267942 1.0168696174748764
ltoes -9.453446901927926
rfemur -5.316662940792076 5.798049688087936 31.93650435763871
rtibia 32.09126951441155
rfoot -9.57911206564147 -8.118406880538668
rtoes 0.39575025244520523
lowerback 1.0 0.648680397502611 4.961321936163573
upperback 0.17302630748427594 2.037679216958709 2.278030432818036
thorax -5.403178462089097 0.9564877064957478 -0.7038709753851566
lowerneck -16.000295524254167 -3.103107337845904 -1.1407801907273816
upperneck 23.09962063402706 -4.038260317516441 -0.320416830570718
head 10.086851793865275 -2.0066041643344326 -0.44700520883672434
lclavicle -1.9297421413707106e-15 -2.3045034159319366e-16
lhumerus -34.18554415722668 5.160851672560941 82.75923904662815
lradius 23.50764312919706
lwrist 7.879217038106443
lhand -27.6413070854694 23.553793800958783
lfingers nan
lthumb -0.9260063411058922 53.47053088744763
rclavicle -1.880509255765833e-15 -1.8755394906934272e-16
rhumerus -27.096384321850387 -23.344783170196177 -71.10763670016898
rradius 29.688611859667137
rwrist 3.613652196052472
rhand -18.387773173820477 1.0
rfingers nan
rthumb 8.122393890374717 -7.6660894259265975
58
root 0.9152104190078678 17.803492755772083 34.43615849952901 -3.722842667566087 -1.8111491677172182 -6.970551564650579
lfemur -19.668063074411023 -0.7498916506357556 -12.995192166899287
ltibia 45.00421611288239
lfoot -9.54496910155845 1.059733393836813
ltoes -9.363714950671385
rfemur -4.948293944094873 5.917338504884652 31.70453670122236
rtibia 34.41041708359518
rfoot -7.907293875961479 -8.598750823881481
rtoes 1.3635437376347035
lowerback 1.0 0.7914979690280678 4.758030851368967
upperback 0.18244490738166283 2.0994030303485074 2.020944156536512
thorax -5.205033765588775 1.0011745172816617 -0.7817789792067635
lowerneck -15.841229026569446 -3.1612045223524405 -1.2092200238862967
upperneck 23.259179916519233 -4.153526099110211 -0.20420264574285735
head 10.162091534267216 -2.0396275070635324 -0.4178993950331926
lclavicle -1.9277944240151546e-15 -2.3007280246114253e-16
lhumerus -33.86407147161286 4.811374900630814 82.73144504297352
lradius 24.06765219067686
lwrist 7.600087059337051
lhand -27.563039830273308 23.613311747326396
lfingers nan
lthumb -0.8514449935767028 53.58497837048098
rclavicle -1.880116610862698e-15 -1.8813166356651663e-16
rhumerus -26.605529892607674 -22.285351103287773 -71.12035151711017
rradius 30.2490938193789
rwrist 3.4127041853374833
rhand -18.411084800650475 1.0
rfingers nan
rthumb 8.103010932264475 -7.7008014879659825
59
root 0.9402306833798804 17.80525393790171 35.36740336477276 -3.823781603597924 -1.6962438657281798 -6.723038345146922
lfemur -19.133178609889143 -1.0125472416056316 -13.536004384129619
ltibia 40.42978536498881
lfoot -8.402677573202224 1.2333813126419613
ltoes -10.199638569090737
rfemur -5.323708655695235 5.930681677352776 31.46702620744365
rtibia 37.36397286550761
rfoot -6.699165289350322 -9.225387304802666
rtoes 2.62296491183457
lowerback 1.0 0.9124018715593931 4.675214609282548
upperback 0.19442864336452825 2.2289662107619064 1.9200026287354341
thorax -5.058440012850651 1.055199672985201 -0.9500314300128148
lowerneck -15.692017188826778 -3.2016132184207406 -1.2870136697439198
upperneck 23.390397086066194 -4.234850220404454 -0.08608251179735273
head 10.226440443518728 -2.060250406720079 -0.3816825063419854
lclavicle -1.92748495719485e-15 -2.3017620909610554e-16
lhumerus -33.356260680924706 4.1567946819324195 82.69068588129849
lradius 24.59918262667374
lwrist 7.409099565675707
lhand -27.570408830384245 23.65901343729732
lfingers nan
lthumb -0.8195115754522971 53.76603494469601
rclavicle -1.8817585661863296e-15 -1.8973548203202407e-16
rhumerus -26.33918473395959 -21.343945884260584 -71.30859944729701
rradius 30.769998244070607
rwrist 3.4296567895126935
rhand -18.356888501083706 1.0
rfingers nan
rthumb 8.184708065296423 -7.678906549743027
60
root 0.9632229833249971 17.81258555074064 36.21324854123771 -3.7546951657135104 -1.4603340353051484 -7.162088396784265
lfemur -18.545023792320357 -1.3575908364988427 -13.658290387373757
ltibia 36.1063467645526
lfoot -6.969093475149565 0.9047223915476219
ltoes -10.51881268908289
rfemur -6.116624307862028 5.91121043433573 31.659103699917875
rtibia 40.672237199805025
rfoot -6.025796649881805 -9.705441966282546
rtoes 3.907504346591636
lowerback 1.0 1.0022485141542574 5.028575903285184
upperback 0.14043698675208044 2.384103636278783 1.9541150963972467
thorax -5.025860159086777 1.1253890586957627 -1.1572800223554776
lowerneck -15.615645776424216 -3.2370585144313395 -1.3716679205798283
upperneck 23.438149363725095 -4.299783706069378 0.051070268178281704
head 10.25246745776961 -2.0744287359557605 -0.3326612381878362
lclavicle -1.924347075494941e-15 -2.2823315247869266e-16
lhumerus -32.71495321021711 3.3554980181196377 82.60832273744292
lradius 25.121228589426515
lwrist 7.222820620404786
lhand -27.51026886252315 23.81355317169152
lfingers nan
lthumb -0.7271820332479728 54.01358093795926
rclavicle -1.8812428052126375e-15 -1.8977184476284555e-16
rhumerus -26.22914661276716 -20.49329948523087 -71.71472449327112
rradius 31.199532879617056
rwrist 3.615048566270181
rhand -18.39888194665879 1.0
rfingers nan
rthumb 8.19255617270807 -7.82172299938256
